<?xml version="1.0" encoding="UTF-8"?>
<svg id="Logo_base" xmlns="http://www.w3.org/2000/svg" viewBox="0 0 200 200">
  <defs>
    <style>
      .cls-1 {
        fill: #efefef;
      }
    </style>
  </defs>
  <path class="cls-1" d="M181.26,80.19c-4.12,7.22-8.9,14.17-14.26,20.81,5.41,6.93,10.18,14.19,14.26,21.71,8.43,15.52,13.88,32.22,15.75,49.71.52,4.53.74,9.16.74,13.79s-.23,9.22-.74,13.79h-36.21c.61-4.55.9-9.16.9-13.79s-.29-9.26-.9-13.79c-1.98-15.55-7.37-30.34-15.59-43.95-.63-1.09-1.31-2.21-2.01-3.29-5.63-8.67-12.37-16.86-20.12-24.41,7.89-7.47,14.8-15.55,20.55-24.17.56-.79,1.08-1.59,1.58-2.41,9.12-14.34,15.1-30.05,17.26-46.59.59-4.55.88-9.16.88-13.79s-.29-9.26-.88-13.79h36.21c.47,4.53.72,9.16.72,13.79s-.25,9.22-.72,13.79c-2.01,18.55-8.02,36.26-17.42,52.6Z"/>
  <path class="cls-1" d="M121.95,172.41c.76,4.5,1.13,9.1,1.13,13.79s-.38,9.28-1.13,13.79H.6v-27.59h84.94c-.91-4.6-2.39-9.09-4.28-13.4-3.85-8.86-9.57-17.09-16.76-24.41-7.03-7.18-15.48-13.47-25.03-18.64-3.6-1.97-7.38-3.78-11.32-5.41h0s0,34.23,0,34.23H.6V55.17h27.55v34.23s0,0,0,0c3.93-1.64,7.71-3.45,11.32-5.41,9.33-5.07,17.62-11.18,24.53-18.16,7.28-7.28,13.07-15.48,17.02-24.32,2.03-4.5,3.54-9.15,4.52-13.93h-47.37v-.07H.6V0h121.35c.76,4.5,1.13,9.1,1.13,13.79s-.38,9.28-1.13,13.79c-1.63,10.46-5.17,20.53-10.32,29.94-4.74,8.71-10.92,16.87-18.22,24.32-6.51,6.63-13.96,12.73-22.19,18.16,8.5,5.57,16.16,11.87,22.84,18.77,7.21,7.49,13.28,15.68,17.93,24.42,4.96,9.19,8.38,19,9.96,29.22Z"/>
</svg>