<?xml version="1.0" encoding="UTF-8"?>
<svg id="Calque_8" data-name="Calque 8" xmlns="http://www.w3.org/2000/svg" version="1.1" viewBox="0 0 262 369">
  <defs>
    <style>
      .cls-1 {
        fill: #f4f4f5;
        stroke-width: 0px;
      }
    </style>
  </defs>
  <path class="cls-1" d="M223.5,46.2H49.3c-1.5,0-2.7,1.2-2.7,2.7v228.5c0,1.5-1.2,2.7-2.7,2.7H7.4c-1.5,0-2.7-1.2-2.7-2.7V7.3c0-1.5,1.2-2.7,2.7-2.7h129.1c33.6,0,59.5,8.2,77.9,24.7,4.3,3.9,8.1,8.1,11.4,12.7,1.3,1.8,0,4.3-2.2,4.3h0Z"/>
  <path class="cls-1" d="M257.3,267.3c0,4.4-.2,8.7-.6,12.8-1.5,16.5-6.2,30.8-13.9,42.7-3.9,6.1-8.7,11.6-14.3,16.4-19.2,16.8-47.1,25.2-83.7,25.2H7.3c-1.5,0-2.7-1.2-2.7-2.7v-36.2c0-1.5,1.2-2.7,2.7-2.7h135.8c23.8,0,41.7-4.8,53.7-14.4,8.4-6.7,13.9-16.2,16.4-28.3,1.1-5.1,1.6-10.8,1.6-16.9,0-40.1-23.9-60.1-71.8-60.1h-9.9c-1.5,0-2.7,1.2-2.7,2.7v71.7c0,1.5-1.2,2.7-2.7,2.7h-36.6c-1.5,0-2.7-1.2-2.7-2.7V91.6c0-1.5,1.2-2.7,2.7-2.7h36.6c1.5,0,2.7,1.2,2.7,2.7v69.8h2.1c21.5,0,38.1-4.9,49.7-14.6,11.6-9.8,17.4-24.1,17.4-42.9s-.3-8.1-.8-11.8c-.2-1.6,1-3.1,2.7-3.1h37.3c1.4,0,2.6,1.1,2.7,2.5.1,2,.1,4.1.1,6.2,0,18.9-3.6,35.1-10.7,48.8-6.2,12-14.4,21.5-24.4,28.5-1.8,1.2-1.5,3.9.5,4.7,14.8,6.1,26.6,16,35.4,29.8,9.8,15.2,14.7,34.5,14.7,57.8h0Z"/>
</svg>